<?xml version="1.0" encoding="UTF-8"?><svg id="Layer_2" xmlns="http://www.w3.org/2000/svg" xmlns:xlink="http://www.w3.org/1999/xlink" viewBox="0 0 2048 958.09"><defs><style>.cls-1{fill:url(#linear-gradient);}</style><linearGradient id="linear-gradient" x1="1024" y1="958.09" x2="1024" y2="0" gradientUnits="userSpaceOnUse"><stop offset=".43" stop-color="#0d3d52"/><stop offset="1" stop-color="#0d4964"/></linearGradient></defs><g id="Layer_5"><polygon class="cls-1" points="0 447.73 168.73 289.64 214.55 309.27 303.45 228.73 365.86 213.56 482.16 313.28 653.36 203.82 715.55 231.64 832.55 130.91 881.64 166.91 1044 29.45 1100.09 49.09 1163.91 0 1225.27 19.64 1306.27 149.73 1345.55 110.45 1365.18 132.55 1441.51 44.18 1534.91 0 1670.49 206.18 1690 169.36 1829.09 321.55 1854.58 308.8 1942 387.82 2048 459 2048 958.09 0 958.09 0 447.73"/></g></svg>