<?xml version="1.0" encoding="UTF-8"?><svg id="Layer_2" xmlns="http://www.w3.org/2000/svg" xmlns:xlink="http://www.w3.org/1999/xlink" viewBox="0 0 2048 798.09"><defs><style>.cls-1{fill:url(#linear-gradient);}</style><linearGradient id="linear-gradient" x1="1024" y1="798.09" x2="1024" y2="0" gradientUnits="userSpaceOnUse"><stop offset="0" stop-color="#0d2f52"/><stop offset="1" stop-color="#01273c"/></linearGradient></defs><g id="Layer_6"><polygon class="cls-1" points="0 527.73 86.36 417.27 126.59 455.66 189.82 348.55 212.07 363.77 263.45 284.73 330.55 260.34 375.95 311.89 487.64 211.45 517.14 234.55 637.41 148.64 711.05 165.82 787.14 94.64 853.41 119.18 924 29.45 980.09 49.09 1043.91 0 1105.27 19.64 1306.27 149.73 1345.55 110.45 1365.18 132.55 1479.6 71.13 1582.41 111.82 1685.5 268.91 1768.95 244.36 1942 387.82 2048 459 2048 798.09 0 798.09 0 527.73"/></g></svg>